<svg xmlns="http://www.w3.org/2000/svg" xmlns:xlink="http://www.w3.org/1999/xlink" width="878.93199" height="115.55293" viewBox="0 0 878.93199 115.55293">
  <defs>
    <style>
      .cls-1 {
        fill: url(#linear-gradient);
      }

      .cls-2 {
        fill: url(#linear-gradient-2);
      }

      .cls-3 {
        fill: url(#linear-gradient-3);
      }

      .cls-4 {
        fill: url(#linear-gradient-4);
      }

      .cls-5 {
        fill: url(#linear-gradient-5);
      }

      .cls-6 {
        fill: url(#linear-gradient-6);
      }

      .cls-7 {
        fill: url(#linear-gradient-7);
      }

      .cls-8 {
        fill: url(#linear-gradient-8);
      }

      .cls-9 {
        fill: url(#linear-gradient-9);
      }

      .cls-10 {
        fill: url(#linear-gradient-10);
      }
    </style>
    <linearGradient id="linear-gradient" x1="679.84345" y1="48.38158" x2="788.7269" y2="48.38158" gradientUnits="userSpaceOnUse">
      <stop offset="0" stop-color="#462523"/>
      <stop offset="0.20138" stop-color="#cb9b51"/>
      <stop offset="0.44722" stop-color="#f6e27a"/>
      <stop offset="0.49984" stop-color="#f6f2c0"/>
      <stop offset="0.55375" stop-color="#f6e27a"/>
      <stop offset="0.79653" stop-color="#cb9b51"/>
      <stop offset="1" stop-color="#462523"/>
    </linearGradient>
    <linearGradient id="linear-gradient-2" x1="796.71078" y1="42.46581" x2="878.93199" y2="42.46581" xlink:href="#linear-gradient"/>
    <linearGradient id="linear-gradient-3" x1="796.44872" y1="64.81361" x2="865.32197" y2="64.81361" xlink:href="#linear-gradient"/>
    <linearGradient id="linear-gradient-4" x1="773.30607" y1="20.13432" x2="831.99943" y2="20.13432" xlink:href="#linear-gradient"/>
    <linearGradient id="linear-gradient-5" x1="530.26726" y1="51.12116" x2="637.44006" y2="51.12116" xlink:href="#linear-gradient"/>
    <linearGradient id="linear-gradient-6" x1="215.24219" y1="64.39557" x2="322.4827" y2="64.39557" xlink:href="#linear-gradient"/>
    <linearGradient id="linear-gradient-7" x1="81.63075" y1="61.7234" x2="180.31383" y2="61.7234" xlink:href="#linear-gradient"/>
    <linearGradient id="linear-gradient-8" x1="0" y1="66.99892" x2="74.23554" y2="66.99892" xlink:href="#linear-gradient"/>
    <linearGradient id="linear-gradient-9" x1="12.67867" y1="46.88325" x2="74.55316" y2="46.88325" xlink:href="#linear-gradient"/>
    <linearGradient id="linear-gradient-10" x1="42.40113" y1="87.33613" x2="95.55377" y2="87.33613" xlink:href="#linear-gradient"/>
  </defs>
  <title>Asset 1</title>
  <g id="Layer_2" data-name="Layer 2">
    <g id="Layer_1-2" data-name="Layer 1">
      <path class="cls-1" d="M788.7269,67.84314c-11.80826,6.05295-23.63021,9.88076-36.30153,10.87442a55.0966,55.0966,0,0,1-5.75212.47437c-3.83178-.1052-6.74366,2.038-9.87441,3.68808a35.2797,35.2797,0,0,1-23.5224,3.81494c-6.03747-1.1224-11.77607-2.86714-16.84821-6.52257a40.15551,40.15551,0,0,1-14.25857-18.55407c-2.94537-7.63588-2.873-15.44084-1.01474-23.25994,3.46229-14.56858,15.86024-26.20782,30.41415-28.28785a61.31625,61.31625,0,0,1,14.55584-.32172c3.47247.342,6.8109,2.07,10.2012,3.20362.837.27985,1.65152.95531,2.46217.933a52.93329,52.93329,0,0,1,17.63447,2.8839A100.54539,100.54539,0,0,1,768.77,21.9864c-5.98731.5509-11.93825.78637-17.59489,3.38758.95985,1.86126,1.53626,3.81712,2.7889,5.12563.89735.93739,2.67037,1.16655,4.10451,1.43537,4.11393.77116,8.4241.89573,12.3426,2.21128,5.31092,1.783,10.33375,4.42733,15.46382,6.73843.32076.14452.49969.60383.87065,1.07771a70.61531,70.61531,0,0,0-28.39522,3.91109c-.47829,3.83745-1.4019,7.36144-1.12476,10.78832.12439,1.53822,2.45674,3.18107,4.12091,4.26319,7.74027,5.03308,16.44344,6.62952,25.52081,6.69933C787.28261,67.62753,787.69724,67.71866,788.7269,67.84314ZM748.54458,20.54025l.20746-.58234c-2.76027,0-5.52076.02144-8.28077-.00551-3.341-.03263-6.46216,1.805-10.05582.20427-10.03268-4.46883-19.67888-3.15864-28.73087,2.93366-8.62359,5.804-12.73808,14.1562-13.14388,24.30866-.39539,9.89242,3.44458,18.10082,11.133,24.34952,7.69056,6.25043,16.5038,8.13914,26.16045,6.105,6.34791-1.3372,11.41574-4.94533,16.05144-9.38221,8.5783,4.76424,17.32948,3.55929,26.15705.96882a69.63872,69.63872,0,0,1-17.736-9.47351,4.18936,4.18936,0,0,1-1.917-4.44444c.54168-4.13445.9519-8.28612,1.51942-13.35462l18.89152-4.10462c-6.9426-2.28432-14.05207-2.42131-21.25884-1.50571l-6.96406-10.397Z"/>
      <path class="cls-2" d="M878.771,46.57408c-6.88068,0-13.76993-.2139-20.63961.061-6.691.26772-13.35577,1.3655-20.04347,1.49134-6.71356.12632-13.44574-.42048-20.16121-.81729-5.00013-.29545-9.987-.81792-14.97886-1.24912a9.81785,9.81785,0,0,1-3.173-.39655c-1.80819-.83526-3.74765-2.36039-2.82782-4.38627a8.1321,8.1321,0,0,1,4.45637-4.00665c4.00648-1.23787,8.00194.15222,11.89676,1.34481,4.46389,1.36682,8.93748,2.70205,13.39994,4.07347,8.19355,2.51805,16.54241,1.12039,24.8486,1.08587,6.2-.02576,12.41378.13551,18.59706.56473,2.9579.20533,5.85925,1.22563,8.7862,1.8768Z"/>
      <path class="cls-3" d="M865.322,70.01764a202.70451,202.70451,0,0,1-36.91757-.946c-4.96786-.62152-9.95214-1.31867-14.94432-1.46794a44.36855,44.36855,0,0,0-10.46117,1.1392,6.00872,6.00872,0,0,1-5.11268-1.22778c-1.86657-1.33137-1.90249-3.15283-.18284-4.80227,3.904-3.74463,8.75826-4.0782,13.556-2.946,6.764,1.59625,13.31522,4.10435,20.08829,5.64853,6.43375,1.46682,13.02039,2.30742,19.56924,3.20992C855.50377,69.25745,860.1401,69.53075,865.322,70.01764Z"/>
      <path class="cls-4" d="M831.99943,26.19889c-2.56561.27646-5.12761.73589-7.69766.78653-3.86334.07612-7.73244-.21184-11.59882-.20409-5.66411.01137-10.80666-1.93983-16.07065-3.717-5.7573-1.94372-11.64442-3.78966-17.80258-.95606-2.81131,1.29358-4.18559.66785-5.221-1.585a4.24076,4.24076,0,0,1,1.99883-5.208,12.93224,12.93224,0,0,1,11.5221-1.22109c5.69481,2.0623,11.09992,4.973,16.858,6.79808a134.041,134.041,0,0,0,16.90344,3.706c3.63656.65134,7.36407.79483,11.05082,1.166Z"/>
      <path class="cls-5" d="M530.26726,102.24231,583.85293,0l53.58712,102.24231Zm88.0561-10.80856a8.77813,8.77813,0,0,0-.33539-1.00292c-4.82951-9.46454-9.68886-18.914-14.4691-28.40333a2.251,2.251,0,0,0-2.45562-1.25387c-11.4776.01664-22.95536.03892-34.43264-.02184a2.53587,2.53587,0,0,0-2.62349,1.66388c-4.55411,9.00056-9.17463,17.96753-13.76354,26.95054-.3155.61759-.54221,1.28054-.87083,2.06754ZM583.85714,23.67044l-13.728,26.87082h27.44644Z"/>
      <path class="cls-6" d="M268.86324,115.55293,215.24219,13.2382H322.4827Zm34.47951-91.32981H234.41548a8.84484,8.84484,0,0,0,.33183.93624c4.832,9.46321,9.69485,18.91081,14.47372,28.40072.59968,1.19085,1.43111,1.21468,2.47709,1.21352,11.40968-.01267,22.81948-.03331,34.22894.01892a2.66691,2.66691,0,0,0,2.80854-1.69557c4.50376-8.9501,9.10772-17.84977,13.67089-26.77C302.73546,25.68381,302.99652,25.006,303.34275,24.22312Zm-20.7906,40.86144H255.16657l13.697,26.78015Z"/>
      <path class="cls-7" d="M99.38957,85.50372c5.80213-.37671,11.198-.47713,16.21635-2.955-.86266-1.654-1.33489-3.42467-2.472-4.47649a7.09291,7.09291,0,0,0-4.11827-1.38446c-8.94976-.60431-17.04749-3.74371-24.77685-8.04665a1.94248,1.94248,0,0,1-.562-.682c4.00705-.27819,8.16846-.36195,12.26756-.9109,3.89326-.52139,7.73528-1.46913,11.57067-2.35556a2.49087,2.49087,0,0,0,2.09256-2.90167c-.08177-2.40774.80869-4.90384.43547-7.22594-.23073-1.43556-1.815-2.94534-3.17111-3.8576a37.62424,37.62424,0,0,0-19.17594-6.137c-1.85852-.10966-3.71413-.269-6.06518-.44191a84.76867,84.76867,0,0,1,25.319-8.84148A111.098,111.098,0,0,1,119.599,33.88378c3.4159-.17421,6.12575-1.80561,8.96708-3.31322a31.778,31.778,0,0,1,21.73013-3.42273c5.32962,1.056,10.34569,2.59,14.83906,5.765A36.25164,36.25164,0,0,1,178.12835,49.6689c2.78132,7.05959,2.71406,14.34537.88743,21.52509-3.26621,12.8381-14.06379,23.391-27.63321,25.28121a81.14453,81.14453,0,0,1-13.20244.35229,12.22815,12.22815,0,0,1-5.41934-1.47255c-3.30434-1.8323-6.82256-2.241-10.464-2.5773A59.44012,59.44012,0,0,1,99.38957,85.50372Zm17.87314,2.03192c3.05294,0,5.53.04314,8.00494-.01081,3.174-.06922,6.3256-1.88946,9.53259-.012a12.823,12.823,0,0,0,2.9355,1.13456,25.69812,25.69812,0,0,0,20.79865-2.67762c6.15535-3.62788,10.64248-8.73053,12.59145-15.96921a29.28528,29.28528,0,0,0,1.01037-12.74969,27.09833,27.09833,0,0,0-10.27255-17.13737,27.892,27.892,0,0,0-19.75545-5.64391c-7.21971.52549-12.92007,4.168-18.07134,9.08317-7.73952-4.33075-15.69616-3.19432-23.72588-.8969a65.269,65.269,0,0,1,16.05527,8.57489,3.97446,3.97446,0,0,1,1.74658,4.23851c-.45906,3.67517-.83829,7.36032-1.34784,11.91224L99.70521,71.11371c6.27053,2.10339,12.76608,2.19456,19.17025,1.37105,2.02472,2.99623,4.04856,5.99111,6.34934,9.39585Z"/>
      <path class="cls-8" d="M0,63.66726c5.12255,0,10.32118.23353,15.49047-.05623C22.75011,63.2041,29.97724,62.1605,37.238,61.8466a95.59444,95.59444,0,0,1,23.05144,1.526,43.21954,43.21954,0,0,0,7.20015.498c1.96236.05829,4.13428-.4496,5.53657,1.30159.72785.90894,1.513,2.74445,1.09058,3.40064a7.999,7.999,0,0,1-3.94594,3.26558c-3.65621,1.10724-7.26156-.14459-10.79357-1.197C55.252,69.41218,51.12591,68.18516,47.01256,66.917c-8.733-2.69243-17.62471-.63283-26.43759-.91435C14.07183,65.7949,7.54871,65.808,1.19283,64.11018A12.14531,12.14531,0,0,1,0,63.66726Z"/>
      <path class="cls-9" d="M12.68937,41.92014c6.043,0,12.10021-.26115,18.12551.06556,7.67427.41613,15.3222,1.31417,22.98256,1.99238,5.07579.44939,10.15769.94457,15.13683-.6981,1.93837-.63948,3.46559.29368,4.73633,1.48513,1.6111,1.51059.94409,3.75368-1.41191,5.14088a14.34642,14.34642,0,0,1-11.13785,1.54412c-6.10424-1.57348-12.06443-3.73882-18.20373-5.13363-5.831-1.32477-11.8-2.08183-17.73449-2.89844-4.14517-.57039-8.3344-.82049-12.504-1.21366Z"/>
      <path class="cls-10" d="M42.40113,81.84871c2.2831-.26243,4.563-.70455,6.85-.74512,3.42036-.06069,6.847.27415,10.2687.23652,5.3002-.05827,10.09555,1.7506,15.01391,3.41186,5.21285,1.76073,10.61408,3.45679,16.1228.75752,1.95162-.9563,3.53486-.64764,4.56509,1.40989a3.73249,3.73249,0,0,1-1.64819,4.74951,11.79412,11.79412,0,0,1-10.64984,1.13067c-5.1567-1.88028-10.05024-4.53106-15.26909-6.1781a121.12363,121.12363,0,0,0-15.33011-3.30406c-3.258-.578-6.593-.72148-9.89352-1.05985Z"/>
    </g>
  </g>
</svg>
